<svg width="215" height="70" viewBox="0 0 215 70" fill="none" xmlns="http://www.w3.org/2000/svg">
<g>
<path fill-rule="evenodd" clip-rule="evenodd" d="M39.2 10.5C39.4 9.6 39.2 8.9 38.8 8.2C38.3 7.6 37.6 7.3 36.8 7.3H27.3L24.8 18.9H34.3C35.2 18.9 36 18.6 36.7 18C37.5 17.4 37.9 16.6 38.1 15.7L39.2 10.5ZM35.1 29.4C35.3 28.5 35.1 27.8 34.7 27.2C34.2 26.6 33.6 26.3 32.7 26.3H23.2L20.5 38.9H30C30.9 38.9 31.7 38.6 32.5 38C33.2 37.4 33.7 36.7 33.9 35.8L35.1 29.4ZM51.4 0C52.6 0 53.7 0.3 54.6 0.9C55.5 1.5 56.2 2.4 56.6 3.4C57 4.5 57.1 5.6 56.8 6.8L54.8 16.2C54.4 18.1 53.4 19.7 51.8 21C50.2 22.3 48.4 23 46.5 23C47.8 23 48.8 23.3 49.7 23.9C50.6 24.5 51.3 25.4 51.6 26.4C52 27.5 52.1 28.6 51.8 29.8L49.8 39.2C49.5 40.4 49 41.5 48.2 42.6C47.4 43.7 46.4 44.5 45.2 45.1C44 45.7 42.8 46 41.6 46H0C0.6 46 1.2 45.6 1.8 44.8C2.4 44 2.8 43 3 41.8L11 4.2C11.3 3 11.3 2 11 1.2C10.9 0.4 10.4 0 9.8 0H51.4Z" fill="#FBEA09"/>
<path fill-rule="evenodd" clip-rule="evenodd" d="M95.2 40L99.7 18.8C100.1 17.1 99.7 15.7 98.8 14.4C97.8 13.2 96.5 12.5 94.8 12.5H63.1C61.4 12.5 59.8 13.1 58.3 14.4C56.8 15.6 55.9 17.1 55.5 18.8L51.1 40C50.7 41.7 51.1 43.2 52 44.4C53 45.6 54.3 46.2 56 46.2H87.8C89.5 46.2 91.1 45.6 92.5 44.4C93.9 43.2 94.9 41.7 95.2 40ZM80.1 37C79.9 37.8 79.5 38.5 78.8 39.1C78.1 39.7 77.3 39.9 76.6 39.9H69.8C69 39.9 68.4 39.6 67.9 39C67.4 38.4 67.3 37.7 67.5 37L70.7 21.8C70.9 21 71.3 20.3 72 19.7C72.7 19.1 73.4 18.8 74.2 18.8H81C81.8 18.8 82.5 19.1 82.9 19.6C83.3 20.2 83.5 20.9 83.3 21.7L80.1 37Z" fill="#FBEA09"/>
<path fill-rule="evenodd" clip-rule="evenodd" d="M140.7 40C140.3 41.7 139.4 43.2 137.9 44.4C136.4 45.6 134.8 46.2 133.2 46.2H101.4C99.7 46.2 98.4 45.6 97.4 44.4C96.4 43.2 96.1 41.7 96.5 40L101 18.8C101.4 17.1 102.3 15.7 103.8 14.4C105.3 13.2 106.9 12.5 108.6 12.5H140.4C142.1 12.5 143.4 13.1 144.4 14.4C145.3 15.6 145.7 17.1 145.3 18.8L140.7 40ZM125.6 37L128.8 21.8C129 21 128.8 20.3 128.4 19.7C128 19.1 127.3 18.9 126.5 18.9H119.7C118.9 18.9 118.1 19.2 117.5 19.8C116.8 20.4 116.4 21.1 116.2 21.9L113 37C112.8 37.8 113 38.5 113.4 39C113.9 39.6 114.5 39.9 115.3 39.9H122.1C122.9 39.9 123.6 39.6 124.3 39.1C125 38.5 125.5 37.8 125.6 37Z" fill="#FBEA09"/>
<path fill-rule="evenodd" clip-rule="evenodd" d="M210 46.3C209.6 46.3 209.3 46 209.2 45.4C209.1 44.8 209.1 44 209.3 43.1L214.4 18.9C214.7 17.8 214.6 16.7 214.2 15.8C213.8 14.8 213.2 14.1 212.4 13.5C211.6 12.9 210.6 12.6 209.5 12.6H192.5C191.7 12.6 191 12.9 190.7 13.5C190.3 14.1 190.1 15 189.9 15.9C190 15.2 189.9 14.5 189.4 13.7C188.9 12.9 188.3 12.5 187.6 12.5H167.3C166.5 12.5 165.8 12.8 165.5 13.4C165.1 14 164.9 14.9 164.7 15.8C164.8 15.1 164.7 14.4 164.2 13.6C163.7 12.8 163.1 12.4 162.4 12.4H148.1C148.5 12.4 148.8 12.7 149 13.3C149.2 13.9 149.2 14.6 149 15.5L143 43.2C142.8 44.1 142.5 44.8 142.1 45.4C141.7 46 141.3 46.3 140.8 46.3H159.5C159.1 46.3 158.8 46 158.7 45.4C158.6 44.8 158.6 44 158.8 43.1L163.3 21.9C163.5 21.1 163.9 20.4 164.6 19.8C165.3 19.2 166 18.9 166.9 18.9H170.4C171.2 18.9 171.9 19.2 172.3 19.7C172.7 20.3 172.9 21 172.7 21.8L168.2 43.2C168 44.1 167.7 44.8 167.3 45.4C166.9 46 166.5 46.3 166 46.3H184.7C184.3 46.3 184 46 183.9 45.4C183.8 44.8 183.8 44 184 43.1L188.5 21.9C188.7 21.1 189.1 20.4 189.8 19.8C190.5 19.2 191.2 18.9 192.1 18.9H195.6C196.4 18.9 197.1 19.2 197.5 19.7C197.9 20.3 198.1 21 197.9 21.8L193.4 43.2C193.2 44.1 192.9 44.8 192.5 45.4C192.1 46 191.7 46.3 191.2 46.3H210Z" fill="#FBEA09"/>
</g>
<g>
<path fill-rule="evenodd" clip-rule="evenodd" d="M71.5 65.9C70.4 65.9 69.5 65.6 68.9 65.1C68.3 64.6 68 63.8 68 62.9C68 62.5 68 62.2 68.1 61.8L69.9 53.5C70.1 52.4 70.6 51.6 71.2 51C71.9 50.3 72.7 50 73.7 50C74.8 50 75.7 50.3 76.3 50.8C76.8 51.3 77.1 52 77.1 53C77.1 53.4 77.1 53.8 77 54.2L76.7 55.4H74.4L74.8 53.7C74.8 53.5 74.9 53.4 74.9 53.2C74.9 52.5 74.5 52.2 73.7 52.2C73 52.2 72.6 52.6 72.4 53.5L70.6 62.1C70.6 62.3 70.5 62.4 70.5 62.6C70.5 63.3 70.9 63.7 71.7 63.7C72.4 63.7 72.9 63.3 73 62.4L73.4 60H75.7L75.2 62.5C74.8 64.7 73.5 65.9 71.5 65.9Z" fill="white"/>
<path fill-rule="evenodd" clip-rule="evenodd" d="M80.1 65.6H77.7L79.7 56.4H77.3L77.7 54.4H84.9L84.5 56.4H82.1L80.1 65.6Z" fill="white"/>
<path fill-rule="evenodd" clip-rule="evenodd" d="M90.7 54.4L87.7 62.1L87.8 54.4H85.5L85.7 65.8L85.5 66.3C85.3 66.9 84.9 67.2 84.4 67.2C84 67.2 83.6 67.1 83.3 66.9L82.9 68.8C83.3 69.1 83.9 69.2 84.7 69.2C85.4 69.2 86 69 86.5 68.6C87 68.2 87.4 67.6 87.8 66.8L93 54.4H90.7Z" fill="white"/>
<path fill-rule="evenodd" clip-rule="evenodd" d="M95 54.4H101.2L99.2 63.6H100.3L99.4 67.7H97L97.4 65.6H93L92.6 67.7H90.2L91.1 63.6H92.2C92.6 63.3 92.9 62.8 93 62.2L95 54.4ZM94.6 63.6H96.9L98.4 56.3H96.8L95.3 62.2C95.2 62.9 94.9 63.4 94.6 63.6Z" fill="white"/>
<path fill-rule="evenodd" clip-rule="evenodd" d="M104.2 61.3L105.6 54.4H103.5L101.1 65.6H103.6L107.4 58.9L106 65.6H108.1L110.5 54.4H108L104.2 61.3Z" fill="white"/>
<path fill-rule="evenodd" clip-rule="evenodd" d="M112 65.6H109.5C109.8 65.1 110 64.6 110.1 64L110.4 62.8C110.6 61.9 110.8 61.2 111.2 60.8C111.5 60.4 112 60.1 112.7 60C112 59.6 111.6 58.9 111.6 58C111.6 55.6 113 54.5 115.7 54.5H119.4L117 65.7H114.6L115.5 61.3H114.7C113.6 61.3 113 61.9 112.7 63L112.4 64.3C112.3 64.9 112.2 65.4 112 65.6ZM115.2 59.2H115.9L116.5 56.4H115.6C115.1 56.4 114.6 56.5 114.3 56.8C114 57.1 113.8 57.5 113.8 58C113.8 58.8 114.3 59.2 115.2 59.2Z" fill="white"/>
<path fill-rule="evenodd" clip-rule="evenodd" d="M126.5 65.6H124.1L126 56.4H123.6L124 54.4H131.3L130.8 56.4H128.4L126.5 65.6Z" fill="white"/>
<path fill-rule="evenodd" clip-rule="evenodd" d="M135.1 54.2C133.3 54.2 132.1 55.2 131.6 57.3L131.4 57.9H133.6L133.7 57.4C134 56.6 134.4 56.2 135 56.2C135.6 56.2 135.9 56.5 135.9 57C135.9 57.2 135.9 57.3 135.8 57.5L135.7 57.8C135.6 58.1 135.5 58.3 135.2 58.5C135 58.7 134.4 59 133.6 59.2C132.4 59.6 131.5 60.2 130.9 60.8C130.3 61.5 130 62.3 130 63.4C130 64.1 130.2 64.7 130.6 65.2C131 65.6 131.6 65.8 132.3 65.8C133.3 65.8 134 65.4 134.6 64.5C134.5 65.1 134.5 65.5 134.5 65.6H136.7C136.7 64.9 136.8 63.9 137.1 62.6L138 58.1C138.1 57.7 138.2 57.2 138.2 56.7C138.2 55.1 137.2 54.2 135.1 54.2ZM133.4 63.8C132.8 63.8 132.5 63.5 132.5 62.9C132.5 62 133 61.3 134 60.9C134.7 60.6 135.2 60.3 135.3 60.2L134.8 62.5C134.6 63.4 134.1 63.8 133.4 63.8Z" fill="white"/>
<path fill-rule="evenodd" clip-rule="evenodd" d="M144.2 58.8L145.1 54.4H147.5L145.1 65.6H142.7L143.8 60.7H141.6L140.6 65.6H138.2L140.6 54.4H142.9L142 58.8H144.2Z" fill="white"/>
<path fill-rule="evenodd" clip-rule="evenodd" d="M154.5 67.7L155.4 63.6H154.2L156.1 54.4H153.8L151.8 63.6H149.7L151.7 54.4H149.3L146.9 65.6H152.6L152.1 67.7H154.5Z" fill="white"/>
<path fill-rule="evenodd" clip-rule="evenodd" d="M161.2 54.2C162.3 54.2 163.1 54.5 163.7 55C164.3 55.5 164.6 56.2 164.6 57.1C164.6 57.4 164.6 57.8 164.5 58.2L164 60.5H159.4L159 62.2C159 62.4 158.9 62.6 158.9 62.8C158.9 63.4 159.3 63.7 160 63.7C160.6 63.7 161 63.3 161.2 62.4L161.3 61.9H163.6L163.5 62.4C163.3 63.5 162.9 64.3 162.2 64.9C161.6 65.5 160.8 65.8 159.8 65.8C158.7 65.8 157.9 65.5 157.3 65C156.7 64.5 156.4 63.8 156.4 62.9C156.4 62.5 156.4 62.2 156.5 61.8L157.4 57.5C157.6 56.4 158 55.6 158.7 55.1C159.5 54.5 160.3 54.2 161.2 54.2ZM160 57.5L159.8 58.7H162L162.2 57.8C162.2 57.6 162.3 57.4 162.3 57.3C162.3 56.7 161.9 56.3 161.2 56.3C160.6 56.3 160.2 56.7 160 57.5Z" fill="white"/>
<path fill-rule="evenodd" clip-rule="evenodd" d="M168.1 65.6C170.9 65.6 172.2 64.4 172.2 61.9C172.2 60.9 171.8 60.2 171.1 59.9C172.4 59.5 173.1 58.4 173.1 56.8C173.1 55.2 172.1 54.4 170.1 54.4H166.7L164.3 65.6H168.1ZM168.7 56.4H169.8C170.4 56.4 170.7 56.7 170.7 57.2C170.7 57.8 170.6 58.3 170.3 58.6C170 58.8 169.6 59 168.9 59H168.1L168.7 56.4ZM167.7 60.9H168.8C169.6 60.9 170 61.2 170 61.8C170 63 169.5 63.6 168.4 63.6H167.2L167.7 60.9Z" fill="white"/>
</g>
</svg>
